<?xml version="1.0" standalone="no"?><!DOCTYPE svg PUBLIC "-//W3C//DTD SVG 1.1//EN" "http://www.w3.org/Graphics/SVG/1.1/DTD/svg11.dtd"><svg t="1577757563127" class="icon" viewBox="0 0 1024 1024" version="1.1" xmlns="http://www.w3.org/2000/svg" p-id="6621" data-spm-anchor-id="a313x.7781069.0.i31" xmlns:xlink="http://www.w3.org/1999/xlink" width="200" height="200"><defs><style type="text/css"></style></defs><path d="M512 0a512 512 0 1 0 512 512A512 512 0 0 0 512 0z m0 910.222222a398.222222 398.222222 0 1 1 398.222222-398.222222 398.222222 398.222222 0 0 1-398.222222 398.222222z" p-id="6622" fill="#515151" data-spm-anchor-id="a313x.7781069.0.i30" class=""></path><path d="M692.906667 411.306667l-80.213334-80.213334L512 431.502222l-100.693333-100.408889-80.213334 80.213334L431.502222 512l-100.408889 100.693333 80.213334 80.213334L512 592.497778l100.693333 100.408889 80.213334-80.213334L592.497778 512l100.408889-100.693333z" p-id="6623" data-spm-anchor-id="a313x.7781069.0.i29" class="selected" fill="#d81e06"></path></svg>