<?xml version="1.0" standalone="no"?><!DOCTYPE svg PUBLIC "-//W3C//DTD SVG 1.1//EN" "http://www.w3.org/Graphics/SVG/1.1/DTD/svg11.dtd"><svg t="1577757511676" class="icon" viewBox="0 0 1024 1024" version="1.1" xmlns="http://www.w3.org/2000/svg" p-id="5141" xmlns:xlink="http://www.w3.org/1999/xlink" width="200" height="200"><defs><style type="text/css"></style></defs><path d="M507.392 181.504a331.776 331.776 0 1 1-234.752 97.28 329.728 329.728 0 0 1 234.752-97.28m0-102.4a434.176 434.176 0 1 0 434.432 434.176A434.176 434.176 0 0 0 507.392 79.104z" fill="#4C4C4C" p-id="5142"></path><path d="M350.72 460.8a52.736 52.736 0 0 0-37.376 15.616 52.992 52.992 0 0 0 0 74.752l106.496 106.496a52.992 52.992 0 1 0 74.752-74.752L388.096 476.16a52.736 52.736 0 0 0-37.376-15.36z" fill="#1afa29" p-id="5143" data-spm-anchor-id="a313x.7781069.0.i23" class="selected"></path><path d="M673.28 350.976a52.736 52.736 0 0 0-37.376 15.616L419.84 582.656a52.992 52.992 0 0 0 0 74.752 52.992 52.992 0 0 0 74.752 0l216.064-216.064a52.992 52.992 0 0 0-37.376-90.368z" fill="#1afa29" p-id="5144" data-spm-anchor-id="a313x.7781069.0.i22" class="selected"></path></svg>